<?xml version="1.0" encoding="UTF-8"?>
<svg version="1.1" xmlns="http://www.w3.org/2000/svg" width="328" height="304">
<path d="M0 0 C8.64010225 0.49480448 16.93990727 1.56868915 25.4140625 3.30078125 C27.85207623 3.78341408 30.29023453 4.26531701 32.72851562 4.74659729 C34.01024658 5.0016913 35.29197754 5.25678532 36.61254883 5.51960945 C107.16681449 19.51186296 174.51159937 28.66634248 246.67895508 26.34690857 C248.0246759 26.3042411 248.0246759 26.3042411 249.39758301 26.26071167 C251.0545121 26.20557158 252.7112818 26.1453035 254.36779785 26.0789032 C259.78252806 25.89126403 259.78252806 25.89126403 262 27 C262 32.28 262 37.56 262 43 C262.99 43.33 263.98 43.66 265 44 C265 44.33 265 44.66 265 45 C266.20398438 45.20496094 267.40796875 45.40992188 268.6484375 45.62109375 C270.22398692 45.89306359 271.79950621 46.16520807 273.375 46.4375 C274.1690625 46.57220703 274.963125 46.70691406 275.78125 46.84570312 C281.7734375 47.88671875 281.7734375 47.88671875 284 49 C283.42750083 60.75342293 281.09843437 72.20014217 278.93579102 83.73950195 C276.24560192 97.76149035 276.24560192 97.76149035 276 112 C275.34 112 274.68 112 274 112 C273.13330851 116.78101753 272.27938197 121.5640885 271.43652344 126.34936523 C271.14889113 127.97236431 270.85795472 129.5947818 270.56347656 131.21655273 C268.93610893 140.1919834 267.45274093 148.83214383 268 158 C267.34 158 266.68 158 266 158 C259.92242566 183.28300031 260.21188669 208.56689243 260.19311523 234.42034912 C260.18364656 240.14035559 260.1461511 245.86017979 260.11132812 251.58007812 C260.04748046 262.72004406 260.0136458 273.85986697 260 285 C255.05 285 250.1 285 245 285 C245 286.65 245 288.3 245 290 C244.34 290 243.68 290 243 290 C243 293.63 243 297.26 243 301 C242.34 301 241.68 301 241 301 C240.67 301.99 240.34 302.98 240 304 C233.22271796 304.23390254 227.11758159 303.67092464 220.51391602 302.17993164 C218.63735686 301.77780804 216.76057479 301.37672374 214.88360596 300.97651672 C213.39515041 300.65493308 213.39515041 300.65493308 211.87662506 300.3268528 C153.65014483 287.89557232 97.77783652 282.04064378 38.3125 282.25 C37.13954431 282.2537664 37.13954431 282.2537664 35.94289255 282.25760889 C15.95782831 282.32534048 -4.01891366 282.58778888 -24 283 C-24 275.74 -24 268.48 -24 261 C-25.32 260.67 -26.64 260.34 -28 260 C-28 259.67 -28 259.34 -28 259 C-35.92 257.515 -35.92 257.515 -44 256 C-44 247.00414596 -44 247.00414596 -43.20948792 243.16867065 C-43.03423206 242.29560083 -42.85897621 241.42253101 -42.67840958 240.52300453 C-42.48361889 239.58970503 -42.2888282 238.65640553 -42.08813477 237.69482422 C-41.6661582 235.59780031 -41.24482953 233.50064596 -40.8240509 231.40338135 C-40.59886087 230.29225227 -40.37367085 229.1811232 -40.14165688 228.03632355 C-27.36817259 164.52674326 -19.88049492 103.77514687 -21.72966003 38.71331787 C-21.75329589 37.85916857 -21.77693174 37.00501926 -21.80128384 36.12498665 C-21.84711561 34.54585076 -21.89785107 32.96684641 -21.95444584 31.38805962 C-22.10946737 26.21893474 -22.10946737 26.21893474 -21 24 C-16.05 24 -11.1 24 -6 24 C-5.67 22.68 -5.34 21.36 -5 20 C-4.67 20 -4.34 20 -4 20 C-3.79503906 18.72382813 -3.59007812 17.44765625 -3.37890625 16.1328125 C-3.10694185 14.46351379 -2.83479709 12.79424447 -2.5625 11.125 C-2.42779297 10.28324219 -2.29308594 9.44148437 -2.15429688 8.57421875 C-2.02216797 7.76855469 -1.89003906 6.96289062 -1.75390625 6.1328125 C-1.57323608 5.01737061 -1.57323608 5.01737061 -1.38891602 3.87939453 C-1 2 -1 2 0 0 Z " fill="#231F20" transform="translate(44,0)"/>
<path d="M0 0 C1.57182403 0.00561269 3.14365341 0.00987485 4.71548462 0.01286316 C8.80240007 0.02418054 12.8889828 0.05353036 16.97576904 0.0869751 C21.16609194 0.11796301 25.35646993 0.13142911 29.546875 0.14648438 C37.73192154 0.17841632 45.91670035 0.22944837 54.1015625 0.29296875 C53.79045621 3.14729346 53.47771824 6.001424 53.1640625 8.85546875 C53.07705078 9.65533203 52.99003906 10.45519531 52.90039062 11.27929688 C52.81337891 12.06884766 52.72636719 12.85839844 52.63671875 13.671875 C52.5581665 14.38931885 52.47961426 15.1067627 52.39868164 15.84594727 C52.01543486 19.00230095 51.55870323 22.14656788 51.1015625 25.29296875 C50.2821669 25.29661438 49.4627713 25.30026001 48.61854553 25.30401611 C40.8656789 25.34201098 33.11328672 25.39899281 25.36072636 25.47687149 C21.3758037 25.51624411 17.39109863 25.54848219 13.40600586 25.56396484 C9.55426583 25.57919944 5.70312441 25.61376339 1.85165215 25.66127777 C0.38824122 25.67602198 -1.0752552 25.68400574 -2.53874016 25.6848526 C-15.50650495 25.61787038 -15.50650495 25.61787038 -26.50572205 31.81060791 C-30.4917135 36.4109206 -31.30169857 39.24405272 -30.8984375 45.29296875 C-29.95435535 48.66469071 -28.99186674 50.57485325 -26.02636719 52.52246094 C-18.6456956 56.29782751 -11.03284378 58.39917588 -3.0234375 60.41796875 C-1.72499693 60.75419242 -0.42681796 61.09142803 0.87109375 61.4296875 C5.74102948 62.69043228 10.61517595 63.93014914 15.50219727 65.12304688 C29.77328853 68.60945185 42.40775827 73.86188892 51.1015625 86.29296875 C57.14998704 96.78078181 57.54170257 107.99152442 55.48828125 119.828125 C52.00460517 131.47618731 44.69508298 140.4366376 34.1015625 146.29296875 C30.17510003 148.21677767 26.24022525 149.88282928 22.1015625 151.29296875 C21.39987946 151.54289078 20.69819641 151.79281281 19.97525024 152.05030823 C11.29847028 154.80726616 2.82776268 154.67686603 -6.16015625 154.5859375 C-7.80352895 154.58033022 -9.44690672 154.57606548 -11.09028625 154.57307434 C-15.37944812 154.56171456 -19.66829682 154.53232572 -23.95733643 154.4989624 C-28.34846767 154.46806838 -32.73965037 154.45452802 -37.13085938 154.43945312 C-45.7202106 154.4074458 -54.3092488 154.35475236 -62.8984375 154.29296875 C-62.8984375 146.37296875 -62.8984375 138.45296875 -62.8984375 130.29296875 C-61.03823975 130.28362305 -59.17804199 130.27427734 -57.26147461 130.26464844 C-51.05475768 130.22885542 -44.84839695 130.1748929 -38.64192867 130.10906601 C-34.88586338 130.06987213 -31.13002267 130.03754846 -27.3737793 130.02197266 C-23.73596856 130.00661766 -20.09877652 129.97185014 -16.46124458 129.92465973 C-15.0865275 129.9100369 -13.711722 129.90193898 -12.33692741 129.9010849 C-0.95672292 129.88692997 12.29464806 129.3465579 21.1015625 121.29296875 C24.21050293 117.54079926 24.63755567 114.231124 24.44140625 109.5 C23.79102093 105.27623326 21.77332236 102.79349714 18.65234375 99.9921875 C11.83877874 95.0466111 3.10485065 93.44961349 -4.8984375 91.29296875 C-47.89144362 79.64065868 -47.89144362 79.64065868 -57.8984375 65.29296875 C-63.40373978 54.98516873 -64.79972614 43.31855449 -61.8359375 31.91796875 C-57.08301392 18.70306441 -47.0605963 11.09612125 -35.046875 4.87109375 C-23.78725401 0.13163262 -11.9920695 -0.12799725 0 0 Z " fill="#FCFCFC" transform="translate(86.8984375,77.70703125)"/>
<path d="M0 0 C0.95018005 0.00359528 1.90036011 0.00719055 2.8793335 0.01089478 C4.37184883 0.01067574 4.37184883 0.01067574 5.89451599 0.01045227 C9.20059348 0.01115186 12.5066154 0.01894637 15.81268311 0.02676392 C18.09811879 0.02862793 20.38355487 0.03005191 22.66899109 0.03105164 C28.69751073 0.03487809 34.72600644 0.04470947 40.7545166 0.05575562 C46.90085527 0.06596699 53.04719778 0.07054867 59.19354248 0.07559204 C71.26321616 0.08633162 83.33286578 0.10392945 95.40252686 0.12442017 C95.40252686 9.03442017 95.40252686 17.94442017 95.40252686 27.12442017 C81.87252686 27.12442017 68.34252686 27.12442017 54.40252686 27.12442017 C54.40252686 68.70442017 54.40252686 110.28442017 54.40252686 153.12442017 C43.51252686 153.12442017 32.62252686 153.12442017 21.40252686 153.12442017 C21.40252686 111.54442017 21.40252686 69.96442017 21.40252686 27.12442017 C10.51252686 27.12442017 -0.37747314 27.12442017 -11.59747314 27.12442017 C-10.96642031 20.81389177 -10.29203543 14.75353754 -9.09747314 8.56192017 C-8.90218018 7.49747681 -8.90218018 7.49747681 -8.70294189 6.41152954 C-7.43679686 -0.2709026 -6.78019766 0.0108426 0 0 Z " fill="#FCFCFC" transform="translate(207.59747314453125,78.87557983398438)"/>
<path d="M0 0 C0 39.6 0 79.2 0 120 C-10.56 120 -21.12 120 -32 120 C-32 82.05 -32 44.1 -32 5 C-5 0 -5 0 0 0 Z " fill="#FDFDFD" transform="translate(183,111)"/>
<path d="M0 0 C4.48982537 1.12245634 4.76745506 1.59022008 7.25 5.1875 C15.7715144 16.57960929 28.44430171 20.86215617 41.75 24.5625 C42.79623535 24.8613208 43.8424707 25.1601416 44.92041016 25.46801758 C50.72040576 27.11550977 56.53788221 28.6776956 62.375 30.1875 C82.0277363 35.39745358 82.0277363 35.39745358 87.15625 43.921875 C88.66906286 47.64787704 88.71742724 51.06384513 88 55 C85.23629843 60.9792631 81.16789448 63.95361321 75.1484375 66.30859375 C70.69896194 67.74051588 66.92427798 68.12212459 62.21191406 68.11352539 C61.20154335 68.11374443 61.20154335 68.11374443 60.17076111 68.1139679 C57.95234924 68.11327324 55.73402214 68.10550181 53.515625 68.09765625 C51.97434536 68.09579048 50.43306512 68.09436733 48.89178467 68.09336853 C44.84102737 68.08955585 40.79030609 68.07973624 36.73956299 68.06866455 C31.8761825 68.05662205 27.01278995 68.05204224 22.1493988 68.04621124 C14.76624084 68.03652381 7.38316187 68.01735853 0 68 C0 45.56 0 23.12 0 0 Z " fill="#231F20" transform="translate(24,139)"/>
<path d="M0 0 C9.1515914 0.53934181 18.05552247 1.69726482 27.08032227 3.28491211 C28.43525177 3.51876692 29.79027071 3.752104 31.14537048 3.98497009 C34.78211871 4.61157833 38.41750246 5.24577863 42.05260968 5.88182902 C45.0969537 6.41371555 48.14198012 6.9416351 51.1870169 7.46953875 C58.36594117 8.71411633 65.54379572 9.9647252 72.72094727 11.21948242 C80.11738796 12.51249383 87.51535963 13.79644767 94.91416889 15.0758304 C101.28552974 16.17780164 107.65602073 17.28469755 114.02581257 18.39570242 C117.82255355 19.05791167 121.61957193 19.71840114 125.41739082 20.374403 C128.97993629 20.99003988 132.54134996 21.61184923 136.10198402 22.23844337 C138.03027865 22.57624241 139.95966167 22.90780991 141.8890686 23.23919678 C143.03693344 23.44244064 144.18479828 23.64568451 145.3674469 23.85508728 C146.36453454 24.02892913 147.36162218 24.20277098 148.3889246 24.38188076 C151 25 151 25 155 27 C102.2 27 49.4 27 -5 27 C-5 26.67 -5 26.34 -5 26 C-10.28 25.67 -15.56 25.34 -21 25 C-21 24.67 -21 24.34 -21 24 C-16.05 24 -11.1 24 -6 24 C-5.67 22.68 -5.34 21.36 -5 20 C-4.67 20 -4.34 20 -4 20 C-3.79503906 18.72382813 -3.59007813 17.44765625 -3.37890625 16.1328125 C-3.10694185 14.46351379 -2.83479709 12.79424447 -2.5625 11.125 C-2.42779297 10.28324219 -2.29308594 9.44148437 -2.15429688 8.57421875 C-2.02216797 7.76855469 -1.89003906 6.96289062 -1.75390625 6.1328125 C-1.63345947 5.38918457 -1.5130127 4.64555664 -1.38891602 3.87939453 C-1 2 -1 2 0 0 Z " fill="#EA1B23" transform="translate(44,0)"/>
<path d="M0 0 C8.95064102 0.74588675 16.46510622 1.86627655 25 4 C24.42750083 15.75342293 22.09843437 27.20014217 19.93579102 38.73950195 C17.24560192 52.76149035 17.24560192 52.76149035 17 67 C16.34 67 15.68 67 15 67 C14.13330851 71.78101753 13.27938197 76.5640885 12.43652344 81.34936523 C12.14889113 82.97236431 11.85795472 84.5947818 11.56347656 86.21655273 C9.93610893 95.1919834 8.45274093 103.83214383 9 113 C8.34 113 7.68 113 7 113 C6.85900879 113.87325928 6.71801758 114.74651855 6.57275391 115.64624023 C6.04679875 118.87713842 5.51294944 122.1065215 4.97363281 125.33520508 C4.74159513 126.73441832 4.5127422 128.13416349 4.28710938 129.53442383 C3.96273879 131.54395652 3.6270633 133.55131468 3.2890625 135.55859375 C3.09006348 136.76829834 2.89106445 137.97800293 2.68603516 139.22436523 C2.45964355 140.14032471 2.23325195 141.05628418 2 142 C1.34 142.33 0.68 142.66 0 143 C0 95.81 0 48.62 0 0 Z " fill="#EA1C24" transform="translate(303,45)"/>
<path d="M0 0 C0.33 0 0.66 0 1 0 C1 27.39 1 54.78 1 83 C22.45 83 43.9 83 66 83 C66 83.33 66 83.66 66 84 C44.88 84 23.76 84 2 84 C2 91.92 2 99.84 2 108 C23.12 108 44.24 108 66 108 C66 108.33 66 108.66 66 109 C44.55 109 23.1 109 1 109 C1 117.58 1 126.16 1 135 C-6.84112541 134.49950263 -14.34531424 133.77975764 -22 132 C-22.25030834 125.17368775 -21.29057613 118.84982143 -20.08813477 112.13964844 C-19.88491608 110.97447693 -19.68169739 109.80930542 -19.47232056 108.60882568 C-18.91730213 105.43467976 -18.35628315 102.26166818 -17.79242063 99.08908367 C-17.20225975 95.76059718 -16.6196395 92.4307908 -16.03611755 89.10113525 C-15.05615522 83.51551887 -14.07121733 77.9307994 -13.08276367 72.34667969 C-11.68936561 64.47479686 -10.30552277 56.60125563 -8.92331612 48.72740126 C-7.96399989 43.26474064 -7.00234057 37.80249213 -6.04028201 32.34031391 C-5.80741735 31.01809344 -5.57462514 29.69586021 -5.34190488 28.37361431 C-4.57726989 24.02960163 -3.80993486 19.68607287 -3.04125977 15.34277344 C-2.84848953 14.24763428 -2.6557193 13.15249512 -2.45710754 12.02416992 C-2.27903564 11.02053406 -2.10096375 10.01689819 -1.91749573 8.98284912 C-1.7635563 8.11200558 -1.60961687 7.24116203 -1.45101261 6.34392929 C-1.03937198 4.20461763 -0.55230732 2.10684943 0 0 Z " fill="#E6252C" transform="translate(22,124)"/>
<path d="M0 0 C42.9 0 85.8 0 130 0 C130 0.66 130 1.32 130 2 C135.61 2 141.22 2 147 2 C147 2.33 147 2.66 147 3 C142.05 3 137.1 3 132 3 C132 4.65 132 6.3 132 8 C131.34 8 130.68 8 130 8 C130 11.63 130 15.26 130 19 C129.34 19 128.68 19 128 19 C127.505 20.485 127.505 20.485 127 22 C119.572159 22.26504662 112.64524145 21.49208634 105.33984375 20.19580078 C104.21993546 20.00394196 103.10002716 19.81208313 101.94618225 19.6144104 C98.27510983 18.98312706 94.60630188 18.33964999 90.9375 17.6953125 C88.37834295 17.25119294 85.81909672 16.80758693 83.25976562 16.36447144 C77.91293017 15.43675291 72.56716659 14.5031778 67.22216797 13.56494141 C61.04232495 12.48026533 54.86049642 11.40752711 48.67751789 10.34088147 C42.71749504 9.31235842 36.75908202 8.27483155 30.80130005 7.23339462 C28.26905926 6.79168164 25.73640386 6.35233889 23.20333862 5.91537857 C19.67581574 5.30566525 16.15023968 4.68574751 12.625 4.06298828 C11.57256607 3.88316406 10.52013214 3.70333984 9.43580627 3.51806641 C8.47988083 3.347034 7.52395538 3.17600159 6.5390625 2.99978638 C5.70584473 2.85414309 4.87262695 2.70849979 4.01416016 2.55844307 C2 2 2 2 0 0 Z " fill="#EA1B23" transform="translate(157,282)"/>
<path d="M0 0 C5.00230198 2.45567552 8.49851535 5.9970307 11 11 C11.5464078 17.33833047 10.64148894 21.71925558 7 27 C1.96036733 31.67965891 -1.42622766 32.42423131 -8.171875 32.3359375 C-12.52726194 31.81858491 -15.10840477 30.25304463 -18 27 C-21.35011969 22.23405592 -22.85463571 17.8756205 -22 12 C-17.94052121 1.71019816 -10.45982884 -1.06521595 0 0 Z " fill="#E91C23" transform="translate(174,74)"/>
<path d="M0 0 C42.9 0 85.8 0 130 0 C129.67 1.98 129.34 3.96 129 6 C128.67 4.68 128.34 3.36 128 2 C127.43568708 2.00607553 126.87137417 2.01215105 126.28996086 2.01841068 C112.4988406 2.1664932 98.70766671 2.30812026 84.91641045 2.4429636 C78.24680862 2.50836676 71.57724608 2.57584771 64.90771484 2.64819336 C58.46274162 2.71802481 52.01773398 2.78224656 45.57266617 2.84269524 C43.12247844 2.86663918 40.67230909 2.89255232 38.22216415 2.92053413 C9.02335533 3.2510577 9.02335533 3.2510577 2 2 C1.34 1.34 0.68 0.68 0 0 Z " fill="#C61C23" transform="translate(157,282)"/>
<path d="M0 0 C44.88 0 89.76 0 136 0 C136 0.33 136 0.66 136 1 C91.12 1 46.24 1 0 1 C0 0.67 0 0.34 0 0 Z " fill="#3E0000" transform="translate(23,284)"/>
<path d="M0 0 C35.64 0 71.28 0 108 0 C108 0.33 108 0.66 108 1 C72.36 1 36.72 1 0 1 C0 0.67 0 0.34 0 0 Z " fill="#050000" transform="translate(195,24)"/>
<path d="M0 0 C0.33 0 0.66 0 1 0 C1.04898437 0.845625 1.09796875 1.69125 1.1484375 2.5625 C1.62342984 10.21087563 1.62342984 10.21087563 3.1875 17.6875 C3.455625 18.780625 3.72375 19.87375 4 21 C3.34 21.66 2.68 22.32 2 23 C1.66725434 25.87306791 1.66725434 25.87306791 1.68115234 29.28564453 C1.67110672 29.92967224 1.6610611 30.57369995 1.65071106 31.23724365 C1.61978417 33.36909073 1.60281806 35.50081171 1.5859375 37.6328125 C1.56723344 39.10970146 1.5476606 40.58657965 1.5272522 42.06344604 C1.47584424 45.95304017 1.43626515 49.84266898 1.39910889 53.73242188 C1.35912333 57.70060872 1.30800622 61.66865022 1.2578125 65.63671875 C1.16095074 73.42437959 1.07657905 81.21211052 1 89 C0.67 89 0.34 89 0 89 C0 59.63 0 30.26 0 0 Z " fill="#361E20" transform="translate(23,118)"/>
<path d="M0 0 C0.33 0 0.66 0 1 0 C1 33.33 1 66.66 1 101 C0.67 101 0.34 101 0 101 C0 67.67 0 34.34 0 0 Z " fill="#060000" transform="translate(20,27)"/>
<path d="M0 0 C0.33 0 0.66 0 1 0 C1 31.68 1 63.36 1 96 C0.67 96 0.34 96 0 96 C0 64.32 0 32.64 0 0 Z " fill="#010000" transform="translate(305,187)"/>
<path d="M0 0 C0.33 0 0.66 0 1 0 C1.04898437 0.845625 1.09796875 1.69125 1.1484375 2.5625 C1.62342984 10.21087563 1.62342984 10.21087563 3.1875 17.6875 C3.455625 18.780625 3.72375 19.87375 4 21 C3.34 21.66 2.68 22.32 2 23 C-0.07434732 17.88763219 -0.24424065 13.53669107 -0.125 8.125 C-0.11597656 7.34125 -0.10695313 6.5575 -0.09765625 5.75 C-0.07428063 3.83319945 -0.03841653 1.91655809 0 0 Z " fill="#3B3031" transform="translate(23,118)"/>
<path d="M0 0 C0.33 0 0.66 0 1 0 C0.67 3.63 0.34 7.26 0 11 C-0.33 11 -0.66 11 -1 11 C-0.67 7.37 -0.34 3.74 0 0 Z " fill="#BF0016" transform="translate(18,134)"/>
<path d="M0 0 C1.98 0 3.96 0 6 0 C6 0.33 6 0.66 6 1 C4.02 1 2.04 1 0 1 C0 0.67 0 0.34 0 0 Z " fill="#FF000A" transform="translate(257,302)"/>
<path d="M0 0 C1.98 0 3.96 0 6 0 C6 0.33 6 0.66 6 1 C4.02 1 2.04 1 0 1 C0 0.67 0 0.34 0 0 Z " fill="#E9000A" transform="translate(251,301)"/>
<path d="M0 0 C1.98 0 3.96 0 6 0 C6 0.33 6 0.66 6 1 C4.02 1 2.04 1 0 1 C0 0.67 0 0.34 0 0 Z " fill="#F0000A" transform="translate(245,300)"/>
<path d="M0 0 C1.98 0 3.96 0 6 0 C6 0.33 6 0.66 6 1 C4.02 1 2.04 1 0 1 C0 0.67 0 0.34 0 0 Z " fill="#F40015" transform="translate(228,297)"/>
<path d="M0 0 C1.98 0 3.96 0 6 0 C6 0.33 6 0.66 6 1 C4.02 1 2.04 1 0 1 C0 0.67 0 0.34 0 0 Z " fill="#FF000A" transform="translate(211,294)"/>
<path d="M0 0 C1.98 0 3.96 0 6 0 C6 0.33 6 0.66 6 1 C4.02 1 2.04 1 0 1 C0 0.67 0 0.34 0 0 Z " fill="#FF000A" transform="translate(205,293)"/>
<path d="M0 0 C1.98 0 3.96 0 6 0 C6 0.33 6 0.66 6 1 C4.02 1 2.04 1 0 1 C0 0.67 0 0.34 0 0 Z " fill="#DB0015" transform="translate(199,292)"/>
<path d="M0 0 C1.98 0 3.96 0 6 0 C6 0.33 6 0.66 6 1 C4.02 1 2.04 1 0 1 C0 0.67 0 0.34 0 0 Z " fill="#F40015" transform="translate(188,290)"/>
<path d="M0 0 C1.98 0 3.96 0 6 0 C6 0.33 6 0.66 6 1 C4.02 1 2.04 1 0 1 C0 0.67 0 0.34 0 0 Z " fill="#910015" transform="translate(182,289)"/>
<path d="M0 0 C1.98 0 3.96 0 6 0 C6 0.33 6 0.66 6 1 C4.02 1 2.04 1 0 1 C0 0.67 0 0.34 0 0 Z " fill="#FF000A" transform="translate(171,287)"/>
<path d="M0 0 C1.98 0 3.96 0 6 0 C6 0.33 6 0.66 6 1 C4.02 1 2.04 1 0 1 C0 0.67 0 0.34 0 0 Z " fill="#E9000A" transform="translate(165,286)"/>
<path d="M0 0 C1.98 0 3.96 0 6 0 C6 0.33 6 0.66 6 1 C4.02 1 2.04 1 0 1 C0 0.67 0 0.34 0 0 Z " fill="#E90015" transform="translate(159,285)"/>
<path d="M0 0 C1.98 0 3.96 0 6 0 C6 0.33 6 0.66 6 1 C4.02 1 2.04 1 0 1 C0 0.67 0 0.34 0 0 Z " fill="#E60015" transform="translate(10,259)"/>
<path d="M0 0 C0.33 0 0.66 0 1 0 C1 1.98 1 3.96 1 6 C0.67 6 0.34 6 0 6 C0 4.02 0 2.04 0 0 Z " fill="#B1000A" transform="translate(1,231)"/>
<path d="M0 0 C0.33 0 0.66 0 1 0 C1 1.98 1 3.96 1 6 C0.67 6 0.34 6 0 6 C0 4.02 0 2.04 0 0 Z " fill="#E90015" transform="translate(4,214)"/>
<path d="M0 0 C0.33 0 0.66 0 1 0 C1 1.98 1 3.96 1 6 C0.67 6 0.34 6 0 6 C0 4.02 0 2.04 0 0 Z " fill="#F4000A" transform="translate(5,208)"/>
<path d="M0 0 C0.33 0 0.66 0 1 0 C1 1.98 1 3.96 1 6 C0.67 6 0.34 6 0 6 C0 4.02 0 2.04 0 0 Z " fill="#F4000A" transform="translate(8,191)"/>
<path d="M0 0 C0.33 0 0.66 0 1 0 C1 1.98 1 3.96 1 6 C0.67 6 0.34 6 0 6 C0 4.02 0 2.04 0 0 Z " fill="#E60015" transform="translate(9,185)"/>
<path d="M0 0 C0.33 0 0.66 0 1 0 C1 1.98 1 3.96 1 6 C0.67 6 0.34 6 0 6 C0 4.02 0 2.04 0 0 Z " fill="#C90015" transform="translate(306,181)"/>
<path d="M0 0 C0.33 0 0.66 0 1 0 C1 1.98 1 3.96 1 6 C0.67 6 0.34 6 0 6 C0 4.02 0 2.04 0 0 Z " fill="#FF0018" transform="translate(307,175)"/>
<path d="M0 0 C0.33 0 0.66 0 1 0 C1 1.98 1 3.96 1 6 C0.67 6 0.34 6 0 6 C0 4.02 0 2.04 0 0 Z " fill="#F40015" transform="translate(11,174)"/>
<path d="M0 0 C0.33 0 0.66 0 1 0 C1 1.98 1 3.96 1 6 C0.67 6 0.34 6 0 6 C0 4.02 0 2.04 0 0 Z " fill="#E90015" transform="translate(310,158)"/>
<path d="M0 0 C0.33 0 0.66 0 1 0 C1 1.98 1 3.96 1 6 C0.67 6 0.34 6 0 6 C0 4.02 0 2.04 0 0 Z " fill="#FF000A" transform="translate(14,157)"/>
<path d="M0 0 C0.33 0 0.66 0 1 0 C1 1.98 1 3.96 1 6 C0.67 6 0.34 6 0 6 C0 4.02 0 2.04 0 0 Z " fill="#FF000A" transform="translate(15,151)"/>
<path d="M0 0 C0.33 0 0.66 0 1 0 C1 1.98 1 3.96 1 6 C0.67 6 0.34 6 0 6 C0 4.02 0 2.04 0 0 Z " fill="#F40015" transform="translate(16,145)"/>
<path d="M0 0 C0.33 0 0.66 0 1 0 C1 1.98 1 3.96 1 6 C0.67 6 0.34 6 0 6 C0 4.02 0 2.04 0 0 Z " fill="#D4000A" transform="translate(314,135)"/>
<path d="M0 0 C0.33 0 0.66 0 1 0 C1 1.98 1 3.96 1 6 C0.67 6 0.34 6 0 6 C0 4.02 0 2.04 0 0 Z " fill="#F40015" transform="translate(316,124)"/>
<path d="M0 0 C0.33 0 0.66 0 1 0 C1 1.98 1 3.96 1 6 C0.67 6 0.34 6 0 6 C0 4.02 0 2.04 0 0 Z " fill="#F40015" transform="translate(317,118)"/>
<path d="M0 0 C0.33 0 0.66 0 1 0 C1 1.98 1 3.96 1 6 C0.67 6 0.34 6 0 6 C0 4.02 0 2.04 0 0 Z " fill="#FF000A" transform="translate(318,112)"/>
<path d="M0 0 C0.33 0 0.66 0 1 0 C1 1.98 1 3.96 1 6 C0.67 6 0.34 6 0 6 C0 4.02 0 2.04 0 0 Z " fill="#A2000A" transform="translate(323,84)"/>
<path d="M0 0 C0.33 0 0.66 0 1 0 C1 1.98 1 3.96 1 6 C0.67 6 0.34 6 0 6 C0 4.02 0 2.04 0 0 Z " fill="#F40015" transform="translate(324,78)"/>
<path d="M0 0 C0.33 0 0.66 0 1 0 C1 1.98 1 3.96 1 6 C0.67 6 0.34 6 0 6 C0 4.02 0 2.04 0 0 Z " fill="#FF000A" transform="translate(325,72)"/>
<path d="M0 0 C1.98 0 3.96 0 6 0 C6 0.33 6 0.66 6 1 C4.02 1 2.04 1 0 1 C0 0.67 0 0.34 0 0 Z " fill="#DB0015" transform="translate(321,46)"/>
<path d="M0 0 C1.98 0 3.96 0 6 0 C6 0.33 6 0.66 6 1 C4.02 1 2.04 1 0 1 C0 0.67 0 0.34 0 0 Z " fill="#FF000A" transform="translate(315,45)"/>
<path d="M0 0 C1.98 0 3.96 0 6 0 C6 0.33 6 0.66 6 1 C4.02 1 2.04 1 0 1 C0 0.67 0 0.34 0 0 Z " fill="#FF000A" transform="translate(309,44)"/>
<path d="M0 0 C1.98 0 3.96 0 6 0 C6 0.33 6 0.66 6 1 C4.02 1 2.04 1 0 1 C0 0.67 0 0.34 0 0 Z " fill="#F00018" transform="translate(189,23)"/>
<path d="M0 0 C1.98 0 3.96 0 6 0 C6 0.33 6 0.66 6 1 C4.02 1 2.04 1 0 1 C0 0.67 0 0.34 0 0 Z " fill="#FF000A" transform="translate(183,22)"/>
<path d="M0 0 C1.98 0 3.96 0 6 0 C6 0.33 6 0.66 6 1 C4.02 1 2.04 1 0 1 C0 0.67 0 0.34 0 0 Z " fill="#F40015" transform="translate(166,19)"/>
<path d="M0 0 C1.98 0 3.96 0 6 0 C6 0.33 6 0.66 6 1 C4.02 1 2.04 1 0 1 C0 0.67 0 0.34 0 0 Z " fill="#E90015" transform="translate(160,18)"/>
<path d="M0 0 C1.98 0 3.96 0 6 0 C6 0.33 6 0.66 6 1 C4.02 1 2.04 1 0 1 C0 0.67 0 0.34 0 0 Z " fill="#E9000A" transform="translate(143,15)"/>
<path d="M0 0 C1.98 0 3.96 0 6 0 C6 0.33 6 0.66 6 1 C4.02 1 2.04 1 0 1 C0 0.67 0 0.34 0 0 Z " fill="#FF000A" transform="translate(137,14)"/>
<path d="M0 0 C1.98 0 3.96 0 6 0 C6 0.33 6 0.66 6 1 C4.02 1 2.04 1 0 1 C0 0.67 0 0.34 0 0 Z " fill="#F40015" transform="translate(126,12)"/>
<path d="M0 0 C1.98 0 3.96 0 6 0 C6 0.33 6 0.66 6 1 C4.02 1 2.04 1 0 1 C0 0.67 0 0.34 0 0 Z " fill="#D40015" transform="translate(120,11)"/>
<path d="M0 0 C1.98 0 3.96 0 6 0 C6 0.33 6 0.66 6 1 C4.02 1 2.04 1 0 1 C0 0.67 0 0.34 0 0 Z " fill="#FF000A" transform="translate(114,10)"/>
<path d="M0 0 C0.33 0 0.66 0 1 0 C1 1.98 1 3.96 1 6 C0.67 6 0.34 6 0 6 C0 4.02 0 2.04 0 0 Z " fill="#FF000A" transform="translate(40,8)"/>
<path d="M0 0 C1.98 0 3.96 0 6 0 C6 0.33 6 0.66 6 1 C4.02 1 2.04 1 0 1 C0 0.67 0 0.34 0 0 Z " fill="#F40015" transform="translate(97,7)"/>
<path d="M0 0 C1.98 0 3.96 0 6 0 C6 0.33 6 0.66 6 1 C4.02 1 2.04 1 0 1 C0 0.67 0 0.34 0 0 Z " fill="#AD000A" transform="translate(86,5)"/>
<path d="M0 0 C1.98 0 3.96 0 6 0 C6 0.33 6 0.66 6 1 C4.02 1 2.04 1 0 1 C0 0.67 0 0.34 0 0 Z " fill="#E90015" transform="translate(80,4)"/>
<path d="M0 0 C1.98 0 3.96 0 6 0 C6 0.33 6 0.66 6 1 C4.02 1 2.04 1 0 1 C0 0.67 0 0.34 0 0 Z " fill="#FF000A" transform="translate(74,3)"/>
<path d="M0 0 C1.98 0 3.96 0 6 0 C6 0.33 6 0.66 6 1 C4.02 1 2.04 1 0 1 C0 0.67 0 0.34 0 0 Z " fill="#FF0015" transform="translate(57,0)"/>
<path d="M0 0 C1.65 0 3.3 0 5 0 C5 0.33 5 0.66 5 1 C3.35 1 1.7 1 0 1 C0 0.67 0 0.34 0 0 Z " fill="#E10019" transform="translate(263,303)"/>
<path d="M0 0 C1.65 0 3.3 0 5 0 C5 0.33 5 0.66 5 1 C3.35 1 1.7 1 0 1 C0 0.67 0 0.34 0 0 Z " fill="#E50019" transform="translate(240,299)"/>
<path d="M0 0 C1.65 0 3.3 0 5 0 C5 0.33 5 0.66 5 1 C3.35 1 1.7 1 0 1 C0 0.67 0 0.34 0 0 Z " fill="#E50019" transform="translate(234,298)"/>
<path d="M0 0 C1.65 0 3.3 0 5 0 C5 0.33 5 0.66 5 1 C3.35 1 1.7 1 0 1 C0 0.67 0 0.34 0 0 Z " fill="#E1000C" transform="translate(223,296)"/>
<path d="M0 0 C1.65 0 3.3 0 5 0 C5 0.33 5 0.66 5 1 C3.35 1 1.7 1 0 1 C0 0.67 0 0.34 0 0 Z " fill="#EE000C" transform="translate(217,295)"/>
<path d="M0 0 C0.33 0 0.66 0 1 0 C1 1.65 1 3.3 1 5 C0.67 5 0.34 5 0 5 C0 3.35 0 1.7 0 0 Z " fill="#F2000C" transform="translate(287,290)"/>
<path d="M0 0 C1.65 0 3.3 0 5 0 C5 0.33 5 0.66 5 1 C3.35 1 1.7 1 0 1 C0 0.67 0 0.34 0 0 Z " fill="#FF000C" transform="translate(194,291)"/>
<path d="M0 0 C1.65 0 3.3 0 5 0 C5 0.33 5 0.66 5 1 C3.35 1 1.7 1 0 1 C0 0.67 0 0.34 0 0 Z " fill="#FF000C" transform="translate(177,288)"/>
<path d="M0 0 C1.65 0 3.3 0 5 0 C5 0.33 5 0.66 5 1 C3.35 1 1.7 1 0 1 C0 0.67 0 0.34 0 0 Z " fill="#E50019" transform="translate(5,258)"/>
<path d="M0 0 C0.33 0 0.66 0 1 0 C1 1.65 1 3.3 1 5 C0.67 5 0.34 5 0 5 C0 3.35 0 1.7 0 0 Z " fill="#F4000A" transform="translate(0,237)"/>
<path d="M0 0 C0.33 0 0.66 0 1 0 C1 1.65 1 3.3 1 5 C0.67 5 0.34 5 0 5 C0 3.35 0 1.7 0 0 Z " fill="#FF000C" transform="translate(2,226)"/>
<path d="M0 0 C0.33 0 0.66 0 1 0 C1 1.65 1 3.3 1 5 C0.67 5 0.34 5 0 5 C0 3.35 0 1.7 0 0 Z " fill="#F20019" transform="translate(3,220)"/>
<path d="M0 0 C0.33 0 0.66 0 1 0 C1 1.65 1 3.3 1 5 C0.67 5 0.34 5 0 5 C0 3.35 0 1.7 0 0 Z " fill="#FF000C" transform="translate(6,203)"/>
<path d="M0 0 C0.33 0 0.66 0 1 0 C1 1.65 1 3.3 1 5 C0.67 5 0.34 5 0 5 C0 3.35 0 1.7 0 0 Z " fill="#FF000C" transform="translate(7,197)"/>
<path d="M0 0 C0.33 0 0.66 0 1 0 C1 1.65 1 3.3 1 5 C0.67 5 0.34 5 0 5 C0 3.35 0 1.7 0 0 Z " fill="#F20019" transform="translate(10,180)"/>
<path d="M0 0 C0.33 0 0.66 0 1 0 C1 1.65 1 3.3 1 5 C0.67 5 0.34 5 0 5 C0 3.35 0 1.7 0 0 Z " fill="#EE000C" transform="translate(308,170)"/>
<path d="M0 0 C0.33 0 0.66 0 1 0 C1 1.65 1 3.3 1 5 C0.67 5 0.34 5 0 5 C0 3.35 0 1.7 0 0 Z " fill="#F20019" transform="translate(12,169)"/>
<path d="M0 0 C0.33 0 0.66 0 1 0 C1 1.65 1 3.3 1 5 C0.67 5 0.34 5 0 5 C0 3.35 0 1.7 0 0 Z " fill="#C7000C" transform="translate(309,164)"/>
<path d="M0 0 C0.33 0 0.66 0 1 0 C1 1.65 1 3.3 1 5 C0.67 5 0.34 5 0 5 C0 3.35 0 1.7 0 0 Z " fill="#FF000C" transform="translate(13,163)"/>
<path d="M0 0 C0.33 0 0.66 0 1 0 C1 1.65 1 3.3 1 5 C0.67 5 0.34 5 0 5 C0 3.35 0 1.7 0 0 Z " fill="#F20019" transform="translate(312,147)"/>
<path d="M0 0 C0.33 0 0.66 0 1 0 C1 1.65 1 3.3 1 5 C0.67 5 0.34 5 0 5 C0 3.35 0 1.7 0 0 Z " fill="#D40019" transform="translate(313,141)"/>
<path d="M0 0 C0.33 0 0.66 0 1 0 C1 1.65 1 3.3 1 5 C0.67 5 0.34 5 0 5 C0 3.35 0 1.7 0 0 Z " fill="#FF000C" transform="translate(315,130)"/>
<path d="M0 0 C0.33 0 0.66 0 1 0 C1 1.65 1 3.3 1 5 C0.67 5 0.34 5 0 5 C0 3.35 0 1.7 0 0 Z " fill="#D80019" transform="translate(19,129)"/>
<path d="M0 0 C0.33 0 0.66 0 1 0 C1 1.65 1 3.3 1 5 C0.67 5 0.34 5 0 5 C0 3.35 0 1.7 0 0 Z " fill="#C70019" transform="translate(320,101)"/>
<path d="M0 0 C0.33 0 0.66 0 1 0 C1 1.65 1 3.3 1 5 C0.67 5 0.34 5 0 5 C0 3.35 0 1.7 0 0 Z " fill="#F20019" transform="translate(321,95)"/>
<path d="M0 0 C0.33 0 0.66 0 1 0 C1 1.65 1 3.3 1 5 C0.67 5 0.34 5 0 5 C0 3.35 0 1.7 0 0 Z " fill="#F20019" transform="translate(322,90)"/>
<path d="M0 0 C0.33 0 0.66 0 1 0 C1 1.65 1 3.3 1 5 C0.67 5 0.34 5 0 5 C0 3.35 0 1.7 0 0 Z " fill="#EE000C" transform="translate(326,67)"/>
<path d="M0 0 C0.33 0 0.66 0 1 0 C1 1.65 1 3.3 1 5 C0.67 5 0.34 5 0 5 C0 3.35 0 1.7 0 0 Z " fill="#E10019" transform="translate(327,61)"/>
<path d="M0 0 C1.65 0 3.3 0 5 0 C5 0.33 5 0.66 5 1 C3.35 1 1.7 1 0 1 C0 0.67 0 0.34 0 0 Z " fill="#FF000C" transform="translate(178,21)"/>
<path d="M0 0 C1.65 0 3.3 0 5 0 C5 0.33 5 0.66 5 1 C3.35 1 1.7 1 0 1 C0 0.67 0 0.34 0 0 Z " fill="#EE000C" transform="translate(172,20)"/>
<path d="M0 0 C1.65 0 3.3 0 5 0 C5 0.33 5 0.66 5 1 C3.35 1 1.7 1 0 1 C0 0.67 0 0.34 0 0 Z " fill="#E50019" transform="translate(155,17)"/>
<path d="M0 0 C1.65 0 3.3 0 5 0 C5 0.33 5 0.66 5 1 C3.35 1 1.7 1 0 1 C0 0.67 0 0.34 0 0 Z " fill="#F20019" transform="translate(149,16)"/>
<path d="M0 0 C0.33 0 0.66 0 1 0 C1 1.65 1 3.3 1 5 C0.67 5 0.34 5 0 5 C0 3.35 0 1.7 0 0 Z " fill="#FF000C" transform="translate(39,14)"/>
<path d="M0 0 C1.65 0 3.3 0 5 0 C5 0.33 5 0.66 5 1 C3.35 1 1.7 1 0 1 C0 0.67 0 0.34 0 0 Z " fill="#FF000C" transform="translate(132,13)"/>
<path d="M0 0 C1.65 0 3.3 0 5 0 C5 0.33 5 0.66 5 1 C3.35 1 1.7 1 0 1 C0 0.67 0 0.34 0 0 Z " fill="#F20019" transform="translate(109,9)"/>
<path d="M0 0 C1.65 0 3.3 0 5 0 C5 0.33 5 0.66 5 1 C3.35 1 1.7 1 0 1 C0 0.67 0 0.34 0 0 Z " fill="#C70019" transform="translate(103,8)"/>
<path d="M0 0 C1.65 0 3.3 0 5 0 C5 0.33 5 0.66 5 1 C3.35 1 1.7 1 0 1 C0 0.67 0 0.34 0 0 Z " fill="#FF000C" transform="translate(92,6)"/>
<path d="M0 0 C0.33 0 0.66 0 1 0 C1 1.65 1 3.3 1 5 C0.67 5 0.34 5 0 5 C0 3.35 0 1.7 0 0 Z " fill="#F2000C" transform="translate(41,3)"/>
<path d="M0 0 C1.65 0 3.3 0 5 0 C5 0.33 5 0.66 5 1 C3.35 1 1.7 1 0 1 C0 0.67 0 0.34 0 0 Z " fill="#EE000C" transform="translate(69,2)"/>
<path d="M0 0 C1.65 0 3.3 0 5 0 C5 0.33 5 0.66 5 1 C3.35 1 1.7 1 0 1 C0 0.67 0 0.34 0 0 Z " fill="#F20019" transform="translate(63,1)"/>
<path d="M0 0 C4 1 4 1 4 1 Z " fill="#DF000F" transform="translate(0,257)"/>
<path d="" fill="#D40015" transform="translate(0,0)"/>
<path d="" fill="#FF0000" transform="translate(0,0)"/>
<path d="" fill="#FF0000" transform="translate(0,0)"/>
</svg>
